# xmcd
#
# Track frame offsets:
#	150
#	14866
#	38864
#	60954
#	77465
#	92683
#	109720
#	128078
#	148674
#	165497
#	181521
#	199611
#	213179
#	229858
#	247503
#	259349
#	278320
#	292659
#	307116
#
# Disc length: 4299 seconds
#
# Revision: 1
# Processed by: cddbd v1.5.2PL0 Copyright (c) Steve Scherf et al.
# Submitted via: audiograbber 1.83.01
#
DISCID=ef10c913
DTITLE=Various Artist - Promo Only Country Radio 2012 - 09
DYEAR=2012
DGENRE=Country
TTITLE0=Toby Keith - Beers Ago (Radio Party Mix)
TTITLE1=David Nail - Someone Like You
TTITLE2=Tim McGraw - Right Back Atcha Babe
TTITLE3=Kip Moore - Beer Money
TTITLE4=Heidi Newfield - Why'd You Have to Be So Good
TTITLE5=Cold Ford and Jake Owen - Back
TTITLE6=Sara Evans - Anywhere
TTITLE7=Chris Cagle - Let There Be Cowgirls
TTITLE8=Laura Alaina - Eighteen Inches
TTITLE9=The Lost Trailers - American Beauty
TTITLE10=Carrie Underwood - Blown Away
TTITLE11=Randy Rogers Band - One More Sad Song
TTITLE12=Tim Culpeper - Pouring Whiskey On Pain
TTITLE13=Rodney Crowell - I'm A Mess
TTITLE14=Kelly Parkes - All Cried Out
TTITLE15=Matt Linsin - Image Of You
TTITLE16=Craig Wayne Boyd - I Ain't No Quitter
TTITLE17=Kelly Weaver - Soul Of Tennessee
TTITLE18=Alexandra Demetree - Just Alone
EXTD=
EXTT0=
EXTT1=
EXTT2=
EXTT3=
EXTT4=
EXTT5=
EXTT6=
EXTT7=
EXTT8=
EXTT9=
EXTT10=
EXTT11=
EXTT12=
EXTT13=
EXTT14=
EXTT15=
EXTT16=
EXTT17=
EXTT18=
PLAYORDER=
